# xmcd CD database file
#
# Track frame offsets:
#	150
#	11285
#	33807
#	47167
#	58073
#	75625
#	93179
#	111864
#	129614
#	148379
#	167259
#
# Disc length: 2576 seconds
#
# Revision: 0
# Processed by: cddbd v1.5.2PL0 Copyright (c) Steve Scherf et al.
# Submitted via: CDex 1.51
#
DISCID=860a0e0b
DTITLE=Pura Fe - Sacred Seed
DYEAR=2015
DGENRE=Blues
TTITLE0=Mohomeneh
TTITLE1=Sacred Seed 
TTITLE2=Woman's Shuffle 
TTITLE3=Pigeon Dance 
TTITLE4=Hiyo Stireh 
TTITLE5=True Freedom
TTITLE6=Spirit In The Sky
TTITLE7=River People 
TTITLE8=Idle No More  
TTITLE9=In A Sentimental Mood 
TTITLE10=My People My Land 
EXTD=YEAR: 2015
EXTT0=
EXTT1=
EXTT2=
EXTT3=
EXTT4=
EXTT5=
EXTT6=
EXTT7=
EXTT8=
EXTT9=
EXTT10=
PLAYORDER=
